<svg height="469.33333pt" viewBox="0 0 469.33333 469.33333" width="469.33333pt" xmlns="http://www.w3.org/2000/svg"><path d="m218.667969 160h-36.90625v53.332031h36.90625c14.71875 0 26.664062-11.945312 26.664062-26.664062 0-14.722657-11.945312-26.667969-26.664062-26.667969zm0 0h-36.90625v53.332031h36.90625c14.71875 0 26.664062-11.945312 26.664062-26.664062 0-14.722657-11.945312-26.667969-26.664062-26.667969zm0 0h-36.90625v53.332031h36.90625c14.71875 0 26.664062-11.945312 26.664062-26.664062 0-14.722657-11.945312-26.667969-26.664062-26.667969zm0 0h-36.90625v53.332031h36.90625c14.71875 0 26.664062-11.945312 26.664062-26.664062 0-14.722657-11.945312-26.667969-26.664062-26.667969zm16-160c-129.496094 0-234.667969 105.171875-234.667969 234.667969 0 129.492187 105.171875 234.664062 234.667969 234.664062 129.492187 0 234.664062-105.171875 234.664062-234.664062 0-129.496094-105.171875-234.667969-234.664062-234.667969zm63.359375 250.667969h10.027344c18.34375 0 33.277343 15.570312 33.277343 34.773437 0 18.984375-14.933593 34.558594-33.277343 34.558594h-46.722657c-4.480469 0-8.320312-1.707031-11.304687-4.691406l-68.265625-53.121094v41.8125c0 8.746094-7.253907 16-16 16-8.960938 0-16-7.253906-16-16v-74.453125c0-.214844 0-.214844 0-.425781v-26.453125h-5.761719c-8.746094 0-16-7.253907-16-16 0-8.746094 7.253906-16 16-16h5.761719v-26.667969c0-8.746094 7.039062-16 16-16h52.90625c26.878906 0 49.492187 17.921875 56.53125 42.667969h7.46875c8.746093 0 16 7.253906 16 16 0 8.746093-7.253907 16-16 16h-7.46875c-7.039063 24.746093-29.652344 42.664062-56.53125 42.664062h-6.402344l54.613281 42.667969h41.175782c.210937 0 1.277343-.851562 1.277343-2.558594 0-1.921875-.851562-2.773437-1.277343-2.773437h-10.027344c-18.132813 0-33.066406-15.574219-33.066406-34.773438 0-18.988281 14.933593-34.5625 33.066406-34.5625h27.304687c8.746094 0 16 7.253907 16 16 0 8.746094-7.253906 16-16 16h-27.304687c-.214844 0-1.066406.855469-1.066406 2.5625 0 1.917969.851562 2.773438 1.066406 2.773438zm-52.695313-64c0-14.722657-11.945312-26.667969-26.664062-26.667969h-36.90625v53.332031h36.90625c14.71875 0 26.664062-11.945312 26.664062-26.664062zm-26.664062-26.667969h-36.90625v53.332031h36.90625c14.71875 0 26.664062-11.945312 26.664062-26.664062 0-14.722657-11.945312-26.667969-26.664062-26.667969zm0 0h-36.90625v53.332031h36.90625c14.71875 0 26.664062-11.945312 26.664062-26.664062 0-14.722657-11.945312-26.667969-26.664062-26.667969zm0 0h-36.90625v53.332031h36.90625c14.71875 0 26.664062-11.945312 26.664062-26.664062 0-14.722657-11.945312-26.667969-26.664062-26.667969zm0 0h-36.90625v53.332031h36.90625c14.71875 0 26.664062-11.945312 26.664062-26.664062 0-14.722657-11.945312-26.667969-26.664062-26.667969zm0 0"/></svg>